<svg width="258" height="176" viewBox="0 0 258 176" version="1.1" xmlns="http://www.w3.org/2000/svg" xmlns:xlink="http://www.w3.org/1999/xlink" xmlns:figma="http://www.figma.com/figma/ns">
<title>Vector</title>
<desc>Created using Figma</desc>
<g id="Canvas" transform="matrix(2 0 0 2 612 980)" figma:type="canvas">
<g id="Vector" style="mix-blend-mode:normal;" figma:type="symbol">
<g id="penguin" style="mix-blend-mode:normal;" figma:type="frame">
<g id="Vector" style="mix-blend-mode:normal;" figma:type="vector">
<use xlink:href="#path0_fill" transform="translate(-306 -490)" style="mix-blend-mode:normal;"/>
</g>
<g id="Vector 2" style="mix-blend-mode:normal;" figma:type="vector">
<use xlink:href="#path1_stroke" transform="translate(-256 -465)" style="mix-blend-mode:normal;"/>
</g>
<g id="Ellipse" style="mix-blend-mode:normal;" figma:type="ellipse">
<use xlink:href="#path2_fill" transform="translate(-245.294 -477.369)" fill="#FFFFFF" style="mix-blend-mode:normal;"/>
</g>
</g>
</g>
</g>
<defs>
<path id="path0_fill" d="M 54.8491 54C 50.3491 42 42.8491 34 38.3491 28.5C 31.226 19.7939 19.3491 12.2 7.3491 9C -4.6509 5.8 0.849129 0.5 4.34912 0C 11.9741 0 30.2491 3.7 37.8491 6.5C 40.3799 7.43238 42.4848 8.22283 44.3814 8.97533C 50.9566 6.20365 58.334 4 65.8491 4C 70.9756 4 86.3491 6.125 96.8491 12.625C 107.349 19.125 115.646 26.8148 119.599 34C 124 41 114.836 35.7823 112.849 35C 106.5 32.5 100.349 35 96.8491 37.5C 93.3491 40 90.3491 47 90.3491 51C 90.3491 55 88 61 84 62.5C 80 64 73.8491 64.5 67.3491 63.5C 60.8491 62.5 56.8265 59.2732 54.8491 54Z"/>
<path id="path1_stroke" d="M 9.5 40.5L 8.53238 40.7524L 8.54595 40.8044L 8.565 40.8547L 9.5 40.5ZM 37 60.5L 37.189 59.518L 37 60.5ZM 67.5 55L 68.147 55.7625L 67.5 55ZM 77.5 33L 78.49 32.8586L 77.5 33ZM 0 16.5C -0.887217 16.9614 -0.887234 16.9613 -0.887227 16.9613C -0.887192 16.9614 -0.88716 16.9615 -0.887089 16.9616C -0.88692 16.9619 -0.886708 16.9623 -0.886371 16.963C -0.885639 16.9644 -0.88463 16.9663 -0.883176 16.9691C -0.880155 16.975 -0.875817 16.9834 -0.869853 16.9949C -0.857697 17.0185 -0.839974 17.0529 -0.816279 17.0991C -0.768425 17.1925 -0.698626 17.3295 -0.60783 17.5097C -0.425287 17.8718 -0.162961 18.3984 0.162933 19.0696C 0.81671 20.416 1.71474 22.3203 2.70913 24.589C 4.70201 29.1348 7.04953 35.0608 8.53238 40.7524L 10.4676 40.2476C 8.95047 34.4392 6.54799 28.3652 4.54087 23.786C 3.53526 21.4922 2.62079 19.5527 1.96207 18.196C 1.63171 17.5157 1.36279 16.9758 1.17814 16.6095C 1.08534 16.4254 1.01257 16.2826 0.96374 16.1872C 0.939095 16.1391 0.919953 16.102 0.907329 16.0775C 0.900902 16.0651 0.895872 16.0553 0.892621 16.0491C 0.890939 16.0458 0.889587 16.0432 0.888742 16.0416C 0.888291 16.0407 0.887909 16.04 0.887683 16.0395C 0.887556 16.0393 0.887439 16.0391 0.887376 16.039C 0.887284 16.0388 0.887217 16.0386 0 16.5ZM 8.565 40.8547C 11.377 48.268 15.1151 52.8319 19.8892 55.8422C 24.5871 58.7896 30.2642 60.2215 36.811 61.482L 37.189 59.518C 30.6959 58.2686 25.3729 56.9505 20.9559 54.1504C 16.6149 51.4132 13.123 47.232 10.435 40.1453L 8.565 40.8547ZM 36.811 61.482C 48.2363 63.6811 59.0107 63.5153 68.147 55.7625L 66.853 54.2375C 58.411 61.4011 48.4024 61.6763 37.189 59.518L 36.811 61.482ZM 68.147 55.7625C 75.2795 49.7101 79.8541 42.4073 78.49 32.8586L 76.51 33.1414C 77.7393 41.7464 73.7028 48.425 66.853 54.2375L 68.147 55.7625ZM 78.49 32.8586C 76.9545 22.2018 72.7399 13.7481 68.957 8.0703C 67.0526 5.21593 65.2255 3.00251 63.8984 1.53284C 63.2285 0.791551 62.6691 0.219693 62.2875 -0.156012C 62.0936 -0.346784 61.9376 -0.495035 61.8349 -0.590984C 61.782 -0.640344 61.7393 -0.679545 61.7121 -0.704278C 61.6978 -0.717318 61.6859 -0.728124 61.6786 -0.734647C 61.6746 -0.73824 61.6711 -0.741437 61.669 -0.743233C 61.6679 -0.744296 61.6667 -0.745342 61.6661 -0.745873C 61.6657 -0.746221 61.6653 -0.746605 61.6651 -0.746779C 61.6647 -0.747117 61.6644 -0.747409 61 0C 60.3356 0.747409 60.3354 0.747209 60.3352 0.747054C 60.3352 0.747063 60.3351 0.746953 60.3351 0.746971C 60.3354 0.747172 60.3354 0.747224 60.3359 0.747625C 60.3371 0.748755 60.3385 0.749948 60.341 0.752202C 60.3467 0.757375 60.3542 0.764102 60.3655 0.774407C 60.3896 0.796366 60.4231 0.827111 60.4698 0.870769C 60.5663 0.960855 60.7033 1.09092 60.8844 1.26929C 61.2528 1.63187 61.7715 2.16157 62.4141 2.87341C 63.712 4.30999 65.4474 6.40907 67.293 9.1797C 71.0101 14.7519 75.0455 22.7982 76.51 33.1414L 78.49 32.8586Z"/>
<path id="path2_fill" d="M 9 4.51422C 9 7.00736 6.98528 9.02845 4.5 9.02845C 2.01472 9.02845 0 7.00736 0 4.51422C 0 2.02109 2.01472 0 4.5 0C 6.98528 0 9 2.02109 9 4.51422Z"/>
</defs>
</svg>
