<svg version="1.1" width="500" height="400" viewBox="0 0 500 400" xmlns="http://www.w3.org/2000/svg" xmlns:xlink="http://www.w3.org/1999/xlink"><g xmlns="http://www.w3.org/2000/svg" id="obj_2"><g id="obj_14" transform="matrix(1,0,0,1,141.446,197.029)" opacity="1" display="inline"><path d="M 0 42.295 C 0 18.938 18.938 0 42.295 0 C 65.652 0 84.589 18.938 84.589 42.295 C 84.589 65.652 65.652 84.59 42.295 84.59 C 18.938 84.59 0 65.652 0 42.295 Z " fill-opacity="1" fill="#000000" stroke="none" stroke-width="1" stroke-linecap="square" stroke-linejoin="miter"/><defs/></g><g id="obj_15" transform="matrix(1,0,0,1,304.795,209.057)" opacity="1" display="inline"><path d="M 0 32.03 C 0 14.338 14.338 0 32.03 0 C 49.722 0 64.061 14.338 64.061 32.03 C 64.061 49.722 49.722 64.061 32.03 64.061 C 14.338 64.061 0 49.722 0 32.03 Z " fill-opacity="1" fill="#000000" stroke="none" stroke-width="1" stroke-linecap="square" stroke-linejoin="miter"/><defs/></g><g id="obj_16" transform="matrix(1,0,0,1,42.368,98.687)" opacity="1" display="inline"><path d="M 316.284 31.055 C 280.907 31.07 249.972 49.678 232.467 77.581 C 215.24 32.278 171.55 0.023 120.192 0 C 53.82 0.03 0 53.834 0 120.221 C 0 186.608 53.82 240.413 120.192 240.413 C 146.092 240.413 170.012 232.144 189.632 218.219 L 221.115 268.016 C 223.118 271.175 226.577 273.081 230.299 273.081 C 230.441 273.081 230.584 273.073 230.734 273.073 C 234.628 272.931 238.117 270.747 239.948 267.303 L 267.296 215.908 C 281.747 224.176 298.441 228.963 316.291 228.97 C 370.951 228.948 415.241 184.665 415.264 130.02 C 415.234 75.361 370.943 31.078 316.284 31.055 Z M 24.7 120.221 C 24.813 67.475 67.46 24.813 120.192 24.723 C 172.938 24.813 215.593 67.467 215.675 120.221 C 215.593 172.953 172.946 215.622 120.192 215.712 C 67.46 215.622 24.805 172.953 24.7 120.221 Z M 229.511 240.525 L 206.372 203.918 C 214.948 195.094 222.113 184.943 227.665 173.831 C 233.127 184.852 240.555 194.674 249.537 202.905 L 229.511 240.525 Z M 316.284 204.263 C 275.28 204.188 242.109 171.039 242.049 130.028 C 242.109 89.009 275.28 55.838 316.284 55.77 C 357.295 55.845 390.459 89.016 390.534 130.028 C 390.459 171.039 357.295 204.188 316.284 204.263 Z " fill-opacity="1" fill="#ff9800" stroke="none" stroke-width="1" stroke-linecap="square" stroke-linejoin="miter"/><defs/></g><g id="obj_17" transform="matrix(1,0,0,1,147.584,37.17)" opacity="1" display="inline"><path d="M 125.6522 81.055 C 93.9892 43.4191 45.0992 30.1461 22.8372 26.2891 L 22.8372 26.2891 C 15.4472 24.9691 11.4402 24.6841 11.4252 24.6841 L 11.4252 24.6841 L 11.4402 24.6841 C 4.6202 24.1581 -0.4818 18.2382 0.0362 11.4182 L 0.0362 11.4182 C 0.5612 4.6202 6.4962 -0.4818 13.3012 0.0362 L 13.3012 0.0362 C 14.4492 0.3582 86.0132 5.0702 136.9142 56.8051 L 136.9142 56.8051 C 151.7032 47.2531 182.5252 30.3181 219.3502 27.9321 L 219.3502 27.9321 C 226.1552 27.5201 232.0002 32.7191 232.4062 39.5251 L 232.4062 39.5251 C 232.8182 46.3301 227.6042 52.1751 220.7982 52.5881 L 220.7982 52.5881 C 189.6682 54.3141 160.6462 70.61 148.6262 78.639 L 148.6262 78.639 C 144.6052 81.295 142.6762 82.796 142.6542 82.796 L 142.6542 82.796 C 140.3952 84.559 137.7242 85.422 135.0612 85.422 L 135.0612 85.422 C 131.5572 85.422 128.0832 83.936 125.6522 81.055 Z " fill-opacity="1" fill="#ff9800" stroke="none" stroke-width="1" stroke-linecap="square" stroke-linejoin="miter"/><defs/></g></g></svg>